<svg width="64" height="64" viewBox="0 0 64 64" fill="none" xmlns="http://www.w3.org/2000/svg">
<path d="M48.5663 25.5809H6.95997C5.48352 25.5809 4.28662 26.7017 4.28662 28.0842V52.8406C4.28662 54.2231 5.48352 55.3439 6.95997 55.3439H48.5663C50.0427 55.3439 51.2396 54.2231 51.2396 52.8406V28.0842C51.2396 26.7017 50.0427 25.5809 48.5663 25.5809Z" fill="#0012B7"/>
<path d="M54.7133 19.4039H13.1069C11.6305 19.4039 10.4336 20.5247 10.4336 21.9072V46.6636C10.4336 48.0461 11.6305 49.1669 13.1069 49.1669H54.7133C56.1897 49.1669 57.3866 48.0461 57.3866 46.6636V21.9072C57.3866 20.5247 56.1897 19.4039 54.7133 19.4039Z" fill="#51CFFF"/>
<path d="M39.4272 25.6855L53.2395 25.6855" stroke="white" stroke-width="3" stroke-linecap="round" stroke-linejoin="round"/>
<path d="M39.4272 32.2369L53.2395 32.2369" stroke="white" stroke-width="3" stroke-linecap="round" stroke-linejoin="round"/>
<path d="M15.8625 35.5797L20.8656 41.5998L28.2617 32.0795C28.3752 31.9334 28.521 31.8156 28.6876 31.7353C28.8542 31.6551 29.0372 31.6145 29.2222 31.6168C29.4071 31.6191 29.589 31.6642 29.7536 31.7485C29.9182 31.8329 30.0611 31.9543 30.1709 32.1031L33.9033 37.0847V26.04C33.9033 25.4128 33.6542 24.8112 33.2106 24.3677C32.7671 23.9242 32.1656 23.675 31.5383 23.675H15.0476C14.4204 23.675 13.8188 23.9242 13.3753 24.3677C12.9318 24.8112 12.6826 25.4128 12.6826 26.04V37.2997L13.9941 35.6141C14.1015 35.4689 14.2408 35.3503 14.4013 35.2675C14.5619 35.1846 14.7393 35.1399 14.9198 35.1365C15.1004 35.1332 15.2794 35.1714 15.4428 35.2483C15.6063 35.3251 15.7499 35.4385 15.8625 35.5797Z" fill="white"/>
<path d="M15.0479 44.8957H31.5451C32.1723 44.8957 32.7739 44.6465 33.2174 44.203C33.6609 43.7595 33.9101 43.1579 33.9101 42.5307V37.0847L30.1841 32.1181C30.0743 31.9693 29.9314 31.8479 29.7668 31.7636C29.6022 31.6792 29.4203 31.6341 29.2354 31.6318C29.0504 31.6295 28.8674 31.6701 28.7008 31.7503C28.5341 31.8306 28.3884 31.9484 28.2749 32.0945L20.8659 41.5997L15.8628 35.5797C15.7491 35.4404 15.605 35.329 15.4417 35.254C15.2783 35.1791 15.0999 35.1424 14.9202 35.147C14.7405 35.1516 14.5643 35.1972 14.4049 35.2804C14.2455 35.3636 14.1073 35.4821 14.0009 35.627L12.6958 37.2997V42.5328C12.6964 43.1575 12.944 43.7565 13.3847 44.1992C13.8254 44.6419 14.4233 44.8923 15.0479 44.8957Z" fill="#4255FF"/>
<path d="M18.5221 32.1654C19.9862 32.1654 21.1731 30.9785 21.1731 29.5144C21.1731 28.0503 19.9862 26.8635 18.5221 26.8635C17.058 26.8635 15.8711 28.0503 15.8711 29.5144C15.8711 30.9785 17.058 32.1654 18.5221 32.1654Z" fill="#4255FF"/>
<path d="M44.364 3.60884C43.6961 6.29028 42.6995 8.40508 38.8696 10.3529C37.3811 10.9102 37.7515 12.0882 38.4902 12.579C43.0739 15.6146 43.0687 20.9774 44.3032 24.5594C44.41 24.869 44.6107 25.1375 44.8773 25.3276C45.1439 25.5176 45.4632 25.6198 45.7906 25.6198C46.118 25.6198 46.4373 25.5176 46.7039 25.3276C46.9705 25.1375 47.1712 24.869 47.278 24.5594C48.5125 20.9774 48.5428 15.4932 53.0861 12.579C53.8349 12.1034 53.9088 10.8672 52.7118 10.3529C49.3322 8.90089 47.7132 6.3477 47.2123 3.60884C46.9346 2.09051 44.7549 2.03897 44.364 3.60884Z" fill="#E372FF"/>
<path d="M57.6854 19.858C57.3774 21.0945 56.9179 22.0697 55.1518 22.9679C54.7855 23.1545 54.6362 23.7681 54.9768 23.9944C57.0905 25.3942 57.0881 27.8672 57.6573 29.5189C57.7066 29.6616 57.7991 29.7855 57.9221 29.8731C58.045 29.9608 58.1922 30.0079 58.3432 30.0079C58.4942 30.0079 58.6414 29.9608 58.7644 29.8731C58.8873 29.7855 58.9799 29.6616 59.0291 29.5189C59.5984 27.8672 59.6124 25.3382 61.7074 23.9944C62.0527 23.7751 61.9104 23.1312 61.5348 22.9679C59.9764 22.2983 59.0968 21.0385 58.9988 19.858C58.9498 19.2444 57.8347 19.2608 57.6854 19.858Z" fill="#E372FF"/>
</svg>
