<svg width="64" height="65" viewBox="0 0 64 65" fill="none" xmlns="http://www.w3.org/2000/svg">
<path d="M5.33398 18.1934C5.33398 14.4842 8.29233 11.4773 11.9416 11.4773H28.8148C32.4641 11.4773 35.4224 14.4842 35.4224 18.1934V35.3433C35.4224 39.0525 32.4641 42.0594 28.8148 42.0594H11.9416C8.29233 42.0594 5.33398 39.0525 5.33398 35.3433V18.1934Z" fill="#51CFFF"/>
<path fill-rule="evenodd" clip-rule="evenodd" d="M55.4739 25.6125C57.2371 25.6125 58.6665 27.0419 58.6665 28.8052L58.6665 52.218C58.6665 53.3935 57.7136 54.3464 56.5381 54.3464L15.0336 54.3464C13.2704 54.3464 11.841 52.917 11.841 51.1538V28.8052C11.841 27.0419 13.2704 25.6125 15.0336 25.6125L55.4739 25.6125Z" fill="#4255FF"/>
<path d="M19.3132 31.0891C19.901 31.0891 20.3774 31.5656 20.3774 32.1533V34.2818C20.3774 34.8695 19.901 35.346 19.3132 35.346H17.1848C16.597 35.346 16.1206 34.8695 16.1206 34.2818V32.1533C16.1206 31.5656 16.597 31.0891 17.1848 31.0891H19.3132Z" fill="#51CFFF"/>
<path d="M27.8279 31.0891C28.4156 31.0891 28.8921 31.5656 28.8921 32.1533V34.2818C28.8921 34.8695 28.4156 35.346 27.8279 35.346H25.6994C25.1117 35.346 24.6352 34.8695 24.6352 34.2818V32.1533C24.6352 31.5656 25.1117 31.0891 25.6994 31.0891H27.8279Z" fill="#51CFFF"/>
<path d="M36.342 31.0891C36.9298 31.0891 37.4062 31.5656 37.4062 32.1533V34.2818C37.4062 34.8695 36.9298 35.346 36.342 35.346H34.2136C33.6258 35.346 33.1494 34.8695 33.1494 34.2818V32.1533C33.1494 31.5656 33.6258 31.0891 34.2136 31.0891H36.342Z" fill="#51CFFF"/>
<path d="M44.8557 31.0891C45.4435 31.0891 45.9199 31.5656 45.9199 32.1533V34.2818C45.9199 34.8695 45.4435 35.346 44.8557 35.346H42.7273C42.1395 35.346 41.6631 34.8695 41.6631 34.2818V32.1533C41.6631 31.5656 42.1395 31.0891 42.7273 31.0891H44.8557Z" fill="#51CFFF"/>
<path d="M53.3694 31.0898C53.9571 31.0898 54.4336 31.5663 54.4336 32.1541V34.2825C54.4336 34.8702 53.9571 35.3467 53.3694 35.3467H51.2409C50.6532 35.3467 50.1767 34.8702 50.1767 34.2825V32.1541C50.1767 31.5663 50.6532 31.0898 51.2409 31.0898H53.3694Z" fill="#51CFFF"/>
<path d="M19.3132 38.5393C19.901 38.5393 20.3774 39.0158 20.3774 39.6035V41.732C20.3774 42.3197 19.901 42.7962 19.3132 42.7962H17.1848C16.597 42.7962 16.1206 42.3197 16.1206 41.732V39.6035C16.1206 39.0158 16.597 38.5393 17.1848 38.5393H19.3132Z" fill="#51CFFF"/>
<path d="M27.8279 38.5393C28.4156 38.5393 28.8921 39.0158 28.8921 39.6035V41.732C28.8921 42.3197 28.4156 42.7962 27.8279 42.7962H25.6994C25.1117 42.7962 24.6352 42.3197 24.6352 41.732V39.6035C24.6352 39.0158 25.1117 38.5393 25.6994 38.5393H27.8279Z" fill="#51CFFF"/>
<path d="M36.3411 38.5388C36.9288 38.5388 37.4053 39.0153 37.4053 39.603V41.7315C37.4053 42.3192 36.9288 42.7957 36.3411 42.7957H34.2126C33.6249 42.7957 33.1484 42.3192 33.1484 41.7315V39.603C33.1484 39.0153 33.6249 38.5388 34.2126 38.5388H36.3411Z" fill="#51CFFF"/>
<path d="M44.8557 38.5393C45.4435 38.5393 45.9199 39.0158 45.9199 39.6035V41.732C45.9199 42.3197 45.4435 42.7962 44.8557 42.7962H42.7273C42.1395 42.7962 41.6631 42.3197 41.6631 41.732V39.6035C41.6631 39.0158 42.1395 38.5393 42.7273 38.5393H44.8557Z" fill="#51CFFF"/>
<path d="M53.3694 38.5393C53.9571 38.5393 54.4336 39.0158 54.4336 39.6035V41.732C54.4336 42.3197 53.9571 42.7962 53.3694 42.7962H51.2409C50.6532 42.7962 50.1767 42.3197 50.1767 41.732V39.6035C50.1767 39.0158 50.6532 38.5393 51.2409 38.5393H53.3694Z" fill="#51CFFF"/>
<path d="M19.3132 45.989C19.901 45.989 20.3774 46.4655 20.3774 47.0532V49.1817C20.3774 49.7694 19.901 50.2459 19.3132 50.2459H17.1848C16.597 50.2459 16.1206 49.7694 16.1206 49.1817V47.0532C16.1206 46.4655 16.597 45.989 17.1848 45.989H19.3132Z" fill="#51CFFF"/>
<path d="M44.8557 45.989C45.4435 45.989 45.9199 46.4655 45.9199 47.0532V49.1817C45.9199 49.7694 45.4435 50.2459 44.8557 50.2459H25.6998C25.1121 50.2459 24.6356 49.7694 24.6356 49.1817V47.0532C24.6356 46.4655 25.1121 45.989 25.6998 45.989H44.8557Z" fill="#51CFFF"/>
<path d="M53.3674 45.989C53.9552 45.989 54.4316 46.4655 54.4316 47.0532V49.1817C54.4316 49.7694 53.9552 50.2459 53.3674 50.2459H51.239C50.6513 50.2459 50.1748 49.7694 50.1748 49.1817V47.0532C50.1748 46.4655 50.6513 45.989 51.239 45.989H53.3674Z" fill="#51CFFF"/>
</svg>
