<svg width="64" height="65" viewBox="0 0 64 65" fill="none" xmlns="http://www.w3.org/2000/svg">
<path d="M26.666 24.8544C26.666 22.498 28.5763 20.5878 30.9327 20.5878H45.4679C46.6307 20.5878 47.7432 21.0624 48.5479 21.9019L57.4794 31.219C58.2409 32.0134 58.666 33.0712 58.666 34.1716V54.7211C58.666 57.0775 56.7558 58.9878 54.3994 58.9878H30.9327C28.5763 58.9878 26.666 57.0775 26.666 54.7211V24.8544Z" fill="#51CFFF"/>
<path d="M45.9918 30.5777L45.9917 20.6321C46.9269 20.6321 47.8439 21.136 48.2528 21.5625C51.2923 24.7318 57.4926 31.0925 57.8767 31.5757C58.2615 32.0598 58.5031 32.9265 58.5811 33.3292H48.7433C47.2237 33.3292 45.9918 32.0973 45.9918 30.5777Z" fill="#CBF1FF"/>
<path fill-rule="evenodd" clip-rule="evenodd" d="M31.5566 46.5337C31.5566 45.5206 32.384 44.6993 33.4047 44.6993H50.8016C51.8222 44.6993 52.6496 45.5206 52.6496 46.5337C52.6496 47.5468 51.8222 48.368 50.8016 48.368H33.4047C32.384 48.368 31.5566 47.5468 31.5566 46.5337Z" fill="white"/>
<path fill-rule="evenodd" clip-rule="evenodd" d="M31.5566 38.438C31.5566 37.4249 32.384 36.6036 33.4047 36.6036H50.8016C51.8222 36.6036 52.6496 37.4249 52.6496 38.438C52.6496 39.4511 51.8222 40.2723 50.8016 40.2723H33.4047C32.384 40.2723 31.5566 39.4511 31.5566 38.438Z" fill="white"/>
<path d="M34.6663 12.3456H5.33301V47.3713H34.6663V12.3456Z" fill="#A8B1FF"/>
<path d="M5.33301 49.887C5.33301 52.1231 7.08515 53.9373 9.24375 53.9373H30.7446C32.9032 53.9373 34.6553 52.1231 34.6553 49.887V45.4735H5.33301V49.887Z" fill="#4255FF"/>
<path d="M34.6663 9.83173C34.6663 7.59325 32.9142 5.77905 30.7556 5.77905H9.24375C7.08515 5.77905 5.33301 7.59325 5.33301 9.83173V14.2428H34.6663V9.83173Z" fill="#4255FF"/>
<path fill-rule="evenodd" clip-rule="evenodd" d="M15.4766 9.95366C15.4766 9.16788 16.1136 8.53088 16.8993 8.53088H23.0995C23.8852 8.53088 24.5222 9.16788 24.5222 9.95366C24.5222 10.7394 23.8852 11.3764 23.0995 11.3764H16.8993C16.1136 11.3764 15.4766 10.7394 15.4766 9.95366Z" fill="white"/>
</svg>
