<svg width="65" height="64" viewBox="0 0 65 64" fill="none" xmlns="http://www.w3.org/2000/svg">
<path d="M24.3936 18.2353C24.3936 16.5488 25.7607 15.1816 27.4472 15.1816H37.8501C38.6824 15.1816 39.4786 15.5213 40.0545 16.1221L46.4468 22.7905C46.9918 23.359 47.296 24.1161 47.296 24.9036V39.611C47.296 41.2975 45.9289 42.6646 44.2424 42.6646H27.4472C25.7607 42.6646 24.3936 41.2975 24.3936 39.611V18.2353Z" fill="#E372FF"/>
<path d="M18.5137 23.1699C18.5137 21.4834 19.8808 20.1162 21.5673 20.1162H31.9702C32.8025 20.1162 33.5987 20.4559 34.1746 21.0567L40.5669 27.725C41.1119 28.2935 41.4162 29.0506 41.4162 29.8382V44.5455C41.4162 46.232 40.049 47.5992 38.3625 47.5992H21.5673C19.8808 47.5992 18.5137 46.232 18.5137 44.5455V23.1699Z" fill="#51CFFF"/>
<path fill-rule="evenodd" clip-rule="evenodd" d="M5.4834 7.54788C5.4834 5.98971 6.70444 4.72656 8.21067 4.72656H18.128C19.6343 4.72656 20.8553 5.98971 20.8553 7.54788C20.8553 9.10605 19.6343 10.3692 18.128 10.3692H10.9379V18.6622C10.9379 20.2203 9.7169 21.4835 8.21067 21.4835C6.70444 21.4835 5.4834 20.2203 5.4834 18.6622V7.54788ZM43.4448 7.54788C43.4448 5.98971 44.6659 4.72656 46.1721 4.72656H56.0895C57.5957 4.72656 58.8167 5.98971 58.8167 7.54788V18.6622C58.8167 20.2203 57.5957 21.4835 56.0895 21.4835C54.5832 21.4835 53.3622 20.2203 53.3622 18.6622V10.3692H46.1721C44.6659 10.3692 43.4448 9.10605 43.4448 7.54788ZM8.21067 42.5151C9.7169 42.5151 10.9379 43.7783 10.9379 45.3364V53.6294H18.128C19.6343 53.6294 20.8553 54.8925 20.8553 56.4507C20.8553 58.0089 19.6343 59.272 18.128 59.272H8.21067C6.70444 59.272 5.4834 58.0089 5.4834 56.4507V45.3364C5.4834 43.7783 6.70444 42.5151 8.21067 42.5151ZM56.0895 42.5151C57.5957 42.5151 58.8167 43.7783 58.8167 45.3364V56.4507C58.8167 58.0089 57.5957 59.272 56.0895 59.272H46.1721C44.6659 59.272 43.4448 58.0089 43.4448 56.4507C43.4448 54.8925 44.6659 53.6294 46.1721 53.6294H53.3622V45.3364C53.3622 43.7783 54.5832 42.5151 56.0895 42.5151Z" fill="#CBF1FF"/>
</svg>
