<svg width="64" height="65" viewBox="0 0 64 65" fill="none" xmlns="http://www.w3.org/2000/svg">
<path d="M16.2427 27.0157C16.2427 24.2424 18.6169 21.9943 21.5456 21.9943H53.364C56.2927 21.9943 58.6669 24.2424 58.6669 27.0157V48.9728C58.6669 51.7461 56.2927 53.9943 53.364 53.9943H21.5456C18.6169 53.9943 16.2427 51.7461 16.2427 48.9728V27.0157Z" fill="#98E3FF"/>
<path d="M5.3335 16.3491C5.3335 13.5759 7.72127 11.3277 10.6667 11.3277H42.6671C45.6126 11.3277 48.0003 13.5759 48.0003 16.3491V38.3063C48.0003 41.0795 45.6125 43.3277 42.6671 43.3277H10.6667C7.72127 43.3277 5.3335 41.0795 5.3335 38.3063V16.3491Z" fill="#51CFFF"/>
<path d="M25.2748 19.8033C25.9357 18.793 27.3983 18.793 28.0592 19.8033L29.8606 22.5571C30.0827 22.8965 30.4177 23.1434 30.8046 23.2527L33.9435 24.1394C35.095 24.4648 35.547 25.8756 34.8039 26.8253L32.7783 29.414C32.5287 29.7331 32.4007 30.1326 32.4178 30.5395L32.5563 33.8414C32.6071 35.0527 31.4238 35.9247 30.3037 35.5013L27.2504 34.3474C26.8741 34.2052 26.4599 34.2052 26.0836 34.3474L23.0303 35.5013C21.9102 35.9247 20.7269 35.0527 20.7777 33.8414L20.9162 30.5395C20.9332 30.1326 20.8053 29.7331 20.5556 29.414L18.5301 26.8253C17.787 25.8756 18.239 24.4648 19.3905 24.1394L22.5294 23.2527C22.9162 23.1434 23.2513 22.8965 23.4733 22.5571L25.2748 19.8033Z" fill="white"/>
</svg>
