<svg width="64" height="65" viewBox="0 0 64 65" fill="none" xmlns="http://www.w3.org/2000/svg">
<path d="M5.33301 10.2368C5.33301 7.72564 7.36871 5.68994 9.87988 5.68994H50.2334C52.7445 5.68994 54.7802 7.72565 54.7802 10.2368V41.4966C54.7802 44.0077 52.7445 46.0434 50.2334 46.0434H9.87988C7.36871 46.0434 5.33301 44.0077 5.33301 41.4966V10.2368Z" fill="#E372FF"/>
<path fill-rule="evenodd" clip-rule="evenodd" d="M12.3916 16.0659C12.3916 15.1242 13.155 14.3608 14.0967 14.3608H44.691C45.6327 14.3608 46.3961 15.1242 46.3961 16.0659C46.3961 17.0076 45.6327 17.771 44.691 17.771H14.0967C13.155 17.771 12.3916 17.0076 12.3916 16.0659Z" fill="white"/>
<path fill-rule="evenodd" clip-rule="evenodd" d="M12.3916 25.9692C12.3916 25.0276 13.155 24.2642 14.0967 24.2642H31.4553C32.397 24.2642 33.1604 25.0276 33.1604 25.9692C33.1604 26.9109 32.397 27.6743 31.4553 27.6743H14.0967C13.155 27.6743 12.3916 26.9109 12.3916 25.9692Z" fill="white"/>
<path fill-rule="evenodd" clip-rule="evenodd" d="M45.3053 44.3113L41.1992 57.1681L41.9048 58.1552C42.002 58.2913 42.135 58.3977 42.2892 58.4624C42.4433 58.5272 42.6124 58.5478 42.7776 58.5219C42.9428 58.496 43.0975 58.4246 43.2244 58.3158C43.3513 58.2069 43.4454 58.0649 43.4962 57.9057L47.6061 45.0469L45.3053 44.3113Z" fill="#A533FF"/>
<path fill-rule="evenodd" clip-rule="evenodd" d="M39.6219 42.4978L36.503 52.2751L35.9212 54.1161L35.5234 55.3603C35.4724 55.5196 35.4667 55.6899 35.5071 55.8522C35.5474 56.0145 35.6321 56.1623 35.7517 56.2792C35.8713 56.3961 36.0211 56.4774 36.1843 56.5139C36.3474 56.5505 36.5176 56.5409 36.6756 56.4863L37.9029 56.0622L41.9903 43.2541L39.6219 42.4978Z" fill="#A533FF"/>
<path d="M41.9838 43.2517L37.8965 56.0598L39.8707 55.3785L39.9345 55.3992L41.1975 57.167L45.2998 44.3101L41.9838 43.2517Z" fill="#A533FF"/>
<path fill-rule="evenodd" clip-rule="evenodd" d="M48.2615 44.3083L52.3639 57.1652L51.6583 58.1524C51.5611 58.2884 51.4281 58.3948 51.2739 58.4595C51.1198 58.5243 50.9507 58.5449 50.7855 58.519C50.6203 58.4931 50.4656 58.4217 50.3387 58.3129C50.2118 58.204 50.1177 58.062 50.0669 57.9028L45.957 45.044L48.2615 44.3083Z" fill="#A533FF"/>
<path fill-rule="evenodd" clip-rule="evenodd" d="M53.9379 42.4958L57.0587 52.2732L57.6461 54.1141L58.0421 55.3584C58.0931 55.5176 58.0987 55.6879 58.0584 55.8502C58.0181 56.0125 57.9334 56.1604 57.8138 56.2773C57.6942 56.3941 57.5444 56.4754 57.3812 56.512C57.218 56.5486 57.0479 56.539 56.8898 56.4843L55.6625 56.0602L51.5752 43.2521L53.9379 42.4958Z" fill="#A533FF"/>
<path d="M51.5777 43.25L55.6651 56.058L53.6927 55.3768L53.627 55.3975L52.3641 57.1653L48.2617 44.3084L51.5777 43.25Z" fill="#A533FF"/>
<path fill-rule="evenodd" clip-rule="evenodd" d="M52.9034 29.8434C52.7492 29.428 52.5072 29.0508 52.1939 28.7374C51.8807 28.424 51.5035 28.1818 51.0883 28.0274C50.673 27.8729 50.2292 27.8098 49.7873 27.8424C49.3455 27.8749 48.9158 28.0023 48.5276 28.2159C48.0666 28.4681 47.5488 28.5983 47.0234 28.5944C46.4979 28.5904 45.9822 28.4524 45.5251 28.1933C45.14 27.9752 44.7126 27.8425 44.2717 27.8042C43.8309 27.766 43.387 27.8232 42.9701 27.9718C42.5533 28.1204 42.1734 28.357 41.8562 28.6656C41.539 28.9741 41.2919 29.3473 41.1318 29.7598C40.941 30.2497 40.6282 30.6828 40.223 31.0179C39.8179 31.3529 39.3338 31.579 38.8168 31.6745C38.3817 31.7546 37.9689 31.9273 37.6065 32.181C37.244 32.4347 36.9404 32.7634 36.7162 33.1447C36.492 33.5261 36.3524 33.9513 36.307 34.3914C36.2617 34.8314 36.3115 35.2761 36.4531 35.6952C36.6227 36.1938 36.6618 36.7275 36.5668 37.2454C36.4717 37.7634 36.2456 38.2484 35.91 38.6542C35.6308 38.9955 35.428 39.3927 35.3153 39.819C35.2026 40.2452 35.1827 40.6907 35.2567 41.1254C35.3308 41.56 35.4972 41.9738 35.7447 42.3387C35.9922 42.7036 36.3151 43.0112 36.6915 43.2407C37.1408 43.5134 37.5129 43.8964 37.7724 44.3534C38.032 44.8103 38.1704 45.3261 38.1745 45.8516C38.1775 46.294 38.2756 46.7305 38.4622 47.1316C38.6488 47.5327 38.9196 47.8889 39.2561 48.1761C39.5927 48.4632 39.9871 48.6746 40.4125 48.7958C40.838 48.917 41.2845 48.9452 41.7219 48.8785C42.2411 48.7984 42.7722 48.8524 43.2648 49.0351C43.7573 49.2179 44.195 49.5235 44.5364 49.9228C44.8231 50.2597 45.179 50.5309 45.5799 50.718C45.9808 50.9051 46.4172 51.0038 46.8596 51.0072C47.3019 51.0107 47.7399 50.9189 48.1436 50.7381C48.5473 50.5573 48.9074 50.2917 49.1994 49.9594C49.5461 49.5641 49.9882 49.2642 50.4836 49.0881C50.979 48.912 51.5112 48.8656 52.0296 48.9533C52.4659 49.0269 52.9129 49.0057 53.3402 48.8911C53.7675 48.7766 54.1652 48.5714 54.5062 48.2896C54.8471 48.0077 55.1235 47.6557 55.3163 47.2576C55.5092 46.8594 55.6141 46.4244 55.624 45.9821C55.6358 45.4568 55.7817 44.9432 56.048 44.4902C56.3143 44.0371 56.692 43.6598 57.1452 43.3939C57.5266 43.1695 57.8552 42.8657 58.1088 42.5031C58.3625 42.1406 58.5352 41.7277 58.6152 41.2926C58.6953 40.8574 58.6808 40.4101 58.5729 39.9811C58.4649 39.552 58.2659 39.1511 57.9894 38.8057C57.6611 38.3958 57.4429 37.9089 57.3555 37.391C57.2681 36.8732 57.3144 36.3416 57.4899 35.8467C57.6381 35.4299 57.6948 34.9861 57.6563 34.5454C57.6177 34.1048 57.4848 33.6776 57.2665 33.2928C57.0482 32.9081 56.7497 32.5749 56.3912 32.3157C56.0327 32.0566 55.6226 31.8777 55.1888 31.7911C54.6734 31.6882 54.1929 31.4552 53.7929 31.1143C53.3929 30.7734 53.0867 30.3359 52.9034 29.8434Z" fill="#FFCD1F"/>
</svg>
